<svg height="512pt" viewBox="0 0 512 512" width="512pt" xmlns="http://www.w3.org/2000/svg" xmlns:xlink="http://www.w3.org/1999/xlink"><linearGradient id="a" gradientUnits="userSpaceOnUse" x1="74.9807" x2="437.0193" y1="74.9807" y2="437.0193"><stop offset="0" stop-color="#18e0ff"/><stop offset="1" stop-color="#0f9af0"/></linearGradient><linearGradient id="b" gradientUnits="userSpaceOnUse" x1="267.0151" x2="367.084" y1="370.8926" y2="370.8926"><stop offset="0" stop-color="#fbd141"/><stop offset="1" stop-color="#fab037"/></linearGradient><linearGradient id="c" gradientUnits="userSpaceOnUse" x1="131.4505" x2="380.5495" y1="217.8231" y2="217.8231"><stop offset="0" stop-color="#fe6192"/><stop offset="1" stop-color="#ff3cad"/></linearGradient><linearGradient id="d" gradientUnits="userSpaceOnUse" x1="144.916" x2="286.058" y1="370.8926" y2="370.8926"><stop offset="0" stop-color="#fdf9a5"/><stop offset="1" stop-color="#fbf24a"/></linearGradient><path d="m512 256c0 141.386719-114.613281 256-256 256s-256-114.613281-256-256 114.613281-256 256-256 256 114.613281 256 256zm0 0" fill="url(#a)"/><path d="m337.472656 285.199219-51.414062 38.085937-21.855469 19.042969 102.882813-19.042969 51.414062-38.085937zm0 0" fill="#f98e2e"/><path d="m225.941406 323.285156-51.414062-38.085937h-81.027344l51.414062 38.085937 102.882813 19.042969zm0 0" fill="#fab037"/><path d="m367.085938 323.285156h-81.027344l-19.042969 47.609375 19.042969 47.605469h81.027344zm0 0" fill="url(#b)"/><path d="m328.996094 179.511719v-47.925781h-145.992188v47.925781h-51.554687l124.550781 124.546875 124.550781-124.546875zm0 0" fill="url(#c)"/><path d="m256 323.285156h-111.085938v95.214844h141.144532v-95.214844zm0 0" fill="url(#d)"/><path d="m256 93.5h-72.996094v19.042969h145.992188v-19.042969zm0 0" fill="#fe6192"/></svg>