<?xml version="1.0" encoding="iso-8859-1"?>
<!-- Generator: Adobe Illustrator 21.0.0, SVG Export Plug-In . SVG Version: 6.00 Build 0)  -->
<svg version="1.1" id="Capa_1" xmlns="http://www.w3.org/2000/svg" xmlns:xlink="http://www.w3.org/1999/xlink" x="0px" y="0px"
	 viewBox="0 0 512.051 512.051" style="enable-background:new 0 0 512.051 512.051;" xml:space="preserve">
<g>
	<g transform="translate(1 1)">
		<path style="fill:#00838F;" d="M451.271,263.486c0,108.395-87.872,196.267-196.267,196.267c-4.352,0-8.619-0.171-12.8-0.427
			c-103.149-6.813-183.332-92.466-183.332-195.84s80.183-189.027,183.332-195.84c4.181-0.256,8.448-0.427,12.8-0.427
			C363.399,67.22,451.271,155.091,451.271,263.486z"/>
		<ellipse style="fill:#00BCD4;" cx="242.204" cy="263.486" rx="183.467" ry="195.84"/>
		<path style="fill:#FFEB3A;" d="M502.471,425.62h-51.2v-42.667c0,0-65.451-51.2-196.267-51.2s-196.267,51.2-196.267,51.2v42.667
			h-51.2l17.067,34.133L7.538,493.886h102.4v-59.733l-0.256-0.683c46.493-17.183,95.761-25.631,145.323-24.917
			c49.562-0.714,98.829,7.734,145.323,24.917l-0.256,0.683v59.733h102.4l-17.067-34.133L502.471,425.62z"/>
		<polygon style="fill:#FF9801;" points="7.538,493.886 24.604,459.753 7.538,425.62 58.738,425.62 58.738,459.753 109.938,493.886 
					"/>
		<g>
			<path style="fill:#FEC108;" d="M109.938,434.153v59.733l-51.2-34.133c15.71-11.032,32.849-19.874,50.944-26.283L109.938,434.153z
				"/>
			<path style="fill:#FEC108;" d="M451.271,459.753l-51.2,34.133v-59.733l0.256-0.683
				C418.422,439.879,435.561,448.721,451.271,459.753z"/>
		</g>
		<polygon style="fill:#FF9801;" points="485.404,459.753 502.471,493.886 400.071,493.886 451.271,459.753 451.271,425.62 
			502.471,425.62 		"/>
		<path style="fill:#FDD834;" d="M314.738,118.42h-25.6v59.733c0,4.713-3.82,8.533-8.533,8.533h-51.2
			c-4.713,0-8.533-3.821-8.533-8.533V118.42H194.93c-3.171-0.125-6.01-1.999-7.372-4.865c-1.361-2.866-1.02-6.251,0.886-8.788
			l53.76-71.68l5.973-7.936c1.597-2.171,4.131-3.454,6.827-3.454s5.23,1.282,6.827,3.454l59.733,79.616
			c1.939,2.586,2.251,6.045,0.806,8.936C320.924,116.593,317.97,118.42,314.738,118.42z"/>
		<path style="fill:#FFEB3A;" d="M289.138,118.42h-25.6v59.733c0,4.713-3.821,8.533-8.533,8.533h-25.6
			c-4.713,0-8.533-3.821-8.533-8.533V118.42H194.93c-3.171-0.125-6.01-1.999-7.372-4.865c-1.361-2.866-1.02-6.251,0.886-8.788
			l53.76-71.68l53.76,71.68c1.939,2.586,2.251,6.045,0.806,8.936C295.324,116.593,292.37,118.42,289.138,118.42z"/>
		<path style="fill:#FDD834;" d="M451.271,382.953v76.8c-8.062-5.818-16.63-10.901-25.6-15.189V374.42
			c-16.091-11.242-33.63-20.256-52.139-26.795C401.301,354.793,427.608,366.748,451.271,382.953z"/>
	</g>
	<g>
		<path d="M1.276,499.375c1.556,2.516,4.304,4.046,7.262,4.045h102.4c1.014-0.026,2.016-0.228,2.961-0.597
			c0.188-0.077,0.375-0.128,0.563-0.213c0.868-0.395,1.663-0.931,2.355-1.587c0.137-0.128,0.23-0.282,0.358-0.418
			c0.307-0.307,0.592-0.635,0.853-0.981c0.109-0.234,0.206-0.473,0.29-0.717c0.274-0.504,0.491-1.036,0.649-1.587
			c0.174-0.555,0.288-1.127,0.341-1.707c0.066-0.239,0.12-0.481,0.162-0.725v-54.511c6.494-2.355,13.406-4.685,21.069-6.895
			c69.549,47.723,161.291,47.743,230.861,0.051c7.68,2.219,14.618,4.557,21.137,6.921v54.434c0.038,0.256,0.089,0.509,0.154,0.759
			c0.053,0.579,0.167,1.151,0.341,1.707c0.158,0.551,0.375,1.083,0.649,1.587c0.084,0.244,0.181,0.483,0.29,0.717
			c0.261,0.346,0.547,0.674,0.853,0.981c0.128,0.137,0.222,0.29,0.358,0.418c0.692,0.656,1.488,1.192,2.355,1.587
			c0.188,0.085,0.375,0.137,0.563,0.213c0.95,0.358,1.955,0.549,2.97,0.563h102.4c2.965,0.016,5.727-1.508,7.293-4.026
			s1.713-5.669,0.387-8.321l-15.206-30.319l15.206-30.319c1.326-2.653,1.179-5.803-0.387-8.321s-4.327-4.043-7.293-4.026h-42.667
			v-34.133c0.001-2.626-1.208-5.107-3.277-6.724c-7.08-5.182-14.569-9.782-22.391-13.756c31.103-56.047,34.109-123.44,8.12-182.034
			c-25.99-58.594-77.964-101.6-140.386-116.164L262.831,11.9c-0.279-0.292-0.581-0.56-0.905-0.802
			c-0.247-0.319-0.515-0.621-0.802-0.905c-0.144-0.077-0.292-0.145-0.444-0.205c-0.503-0.317-1.042-0.575-1.604-0.768
			c-0.466-0.216-0.952-0.385-1.451-0.503c-1.078-0.114-2.165-0.114-3.243,0c-0.498,0.123-0.984,0.291-1.451,0.503
			c-0.559,0.199-1.096,0.453-1.604,0.759c-0.137,0.094-0.307,0.111-0.444,0.213c-0.293,0.281-0.564,0.583-0.811,0.905
			c-0.315,0.249-0.614,0.517-0.896,0.802l-40.013,53.342C146.727,79.795,94.738,122.804,68.741,181.409
			s-22.986,126.011,8.131,182.064c-7.824,3.984-15.312,8.596-22.391,13.79c-2.059,1.61-3.267,4.076-3.277,6.69v34.133H8.538
			c-2.958-0.001-5.705,1.529-7.261,4.045c-1.556,2.516-1.698,5.657-0.376,8.303l15.164,30.319L0.9,491.072
			C-0.422,493.717-0.28,496.859,1.276,499.375z M102.404,478.946l-27.187-18.133c8.756-5.156,17.837-9.736,27.187-13.713V478.946z
			 M256.004,452.22c-32.418,0.033-64.284-8.4-92.442-24.465c30.374-6.554,61.369-9.796,92.442-9.668
			c31.052-0.123,62.026,3.133,92.373,9.711C320.234,443.832,288.395,452.25,256.004,452.22z M436.757,460.838l-27.153,18.108V447.1
			C418.941,451.09,428.011,455.679,436.757,460.838z M489.664,435.153l-10.897,21.786c-1.2,2.401-1.2,5.227,0,7.629l10.897,21.786
			h-60.433l27.75-18.5c0.128-0.085,0.188-0.222,0.307-0.316c0.711-0.515,1.337-1.14,1.852-1.852
			c0.077-0.111,0.188-0.205,0.265-0.316c0.516-0.824,0.888-1.73,1.101-2.679c0.05-0.26,0.087-0.522,0.111-0.785
			c0.089-0.379,0.152-0.764,0.188-1.152v-25.6H489.664z M68.271,264.486c0.363-78.821,49.679-149.112,123.674-176.273L172.378,114.3
			c-1.939,2.586-2.251,6.045-0.806,8.936c1.445,2.891,4.4,4.717,7.632,4.717h34.133v59.733c0,4.713,3.82,8.533,8.533,8.533
			s8.533-3.821,8.533-8.533V119.42c0-4.713-3.821-8.533-8.533-8.533h-25.6l59.733-79.642l59.733,79.642h-25.6
			c-4.713,0-8.533,3.821-8.533,8.533v68.267c0,4.713,3.82,8.533,8.533,8.533s8.533-3.821,8.533-8.533v-59.733h34.133
			c3.232,0,6.187-1.826,7.632-4.717c1.445-2.891,1.134-6.35-0.806-8.936l-19.567-26.086
			c73.994,27.161,123.311,97.452,123.674,176.273c-0.009,32.051-8.266,63.559-23.979,91.494
			c-51.73-22.029-107.54-32.854-163.755-31.761c-56.215-1.093-112.024,9.732-163.755,31.761
			C76.537,328.046,68.279,296.537,68.271,264.486z M68.271,388.365c14.507-9.771,77.286-47.078,187.733-47.078
			c110.08,0,173.158,37.35,187.733,47.095v56.61c-25.916-15.172-88.201-43.972-187.733-43.972s-161.818,28.8-187.733,43.972V388.365
			z M33.284,456.938l-10.94-21.786h28.86v25.6c0.028,0.387,0.082,0.772,0.162,1.152c0.024,0.263,0.061,0.525,0.111,0.785
			c0.212,0.949,0.585,1.855,1.101,2.679c0.077,0.111,0.188,0.205,0.265,0.316c0.515,0.712,1.14,1.337,1.852,1.852
			c0.119,0.094,0.179,0.23,0.307,0.316l27.776,18.5H22.344l10.94-21.786C34.484,462.166,34.484,459.34,33.284,456.938z"/>
		<path d="M170.671,290.086h-8.533v-59.733c0.001-2.958-1.529-5.705-4.045-7.261c-2.516-1.556-5.657-1.698-8.303-0.376
			l-17.067,8.533c-4.218,2.107-5.93,7.234-3.823,11.452c2.107,4.218,7.234,5.93,11.452,3.823l4.719-2.364v45.926h-8.533
			c-4.713,0-8.533,3.82-8.533,8.533s3.821,8.533,8.533,8.533h34.133c4.713,0,8.533-3.82,8.533-8.533
			S175.384,290.086,170.671,290.086z"/>
		<path d="M230.404,221.82h-25.6c-9.426,0-17.067,7.641-17.067,17.067v51.2c0,9.426,7.641,17.067,17.067,17.067h25.6
			c9.426,0,17.067-7.641,17.067-17.067v-51.2C247.471,229.461,239.83,221.82,230.404,221.82z M204.804,290.086v-51.2h25.6v51.2
			H204.804z"/>
		<path d="M273.071,307.153h25.6c9.426,0,17.067-7.641,17.067-17.067v-51.2c0-9.426-7.641-17.067-17.067-17.067h-25.6
			c-9.426,0-17.067,7.641-17.067,17.067v51.2C256.004,299.512,263.645,307.153,273.071,307.153z M273.071,238.886h25.6v51.2h-25.6
			V238.886z"/>
		<path d="M338.095,246.737c2.066,0.911,4.419,0.911,6.485,0c1.034-0.433,1.986-1.039,2.816-1.792
			c1.558-1.636,2.442-3.8,2.475-6.059c-0.015-0.572-0.072-1.143-0.171-1.707c-0.093-0.535-0.266-1.052-0.512-1.536
			c-0.17-0.525-0.43-1.015-0.768-1.451c-0.341-0.512-0.683-0.939-1.024-1.365c-0.83-0.753-1.782-1.359-2.816-1.792
			c-2.078-0.853-4.408-0.853-6.485,0c-1.034,0.433-1.986,1.039-2.816,1.792c-0.341,0.427-0.683,0.853-1.024,1.365
			c-0.338,0.435-0.598,0.926-0.768,1.451c-0.247,0.484-0.419,1.001-0.512,1.536c-0.099,0.564-0.156,1.134-0.171,1.707
			c0.033,2.259,0.917,4.422,2.475,6.059C336.109,245.698,337.061,246.304,338.095,246.737z"/>
		<path d="M400.388,286.801c-0.17-0.525-0.43-1.015-0.768-1.451c-0.341-0.512-0.683-0.939-1.024-1.365
			c-0.83-0.753-1.782-1.359-2.816-1.792c-2.078-0.854-4.408-0.854-6.485,0c-1.034,0.433-1.986,1.039-2.816,1.792
			c-0.341,0.427-0.683,0.853-1.024,1.365c-0.338,0.435-0.598,0.926-0.768,1.451c-0.247,0.483-0.419,1.001-0.512,1.536
			c-0.099,0.564-0.156,1.134-0.171,1.707c0.033,2.259,0.917,4.422,2.475,6.059c0.83,0.753,1.782,1.359,2.816,1.792
			c2.066,0.911,4.419,0.911,6.485,0c1.034-0.433,1.986-1.039,2.816-1.792c1.558-1.636,2.442-3.8,2.475-6.059
			c-0.015-0.572-0.072-1.143-0.171-1.707C400.807,287.802,400.635,287.284,400.388,286.801z"/>
		<path d="M341.338,298.62c2.263,0,4.433-0.9,6.033-2.5l51.2-51.2c3.234-3.348,3.188-8.671-0.104-11.962
			c-3.292-3.292-8.614-3.338-11.962-0.104l-51.2,51.2c-2.44,2.44-3.169,6.11-1.849,9.298
			C334.776,296.54,337.887,298.619,341.338,298.62z"/>
	</g>
</g>
<g>
</g>
<g>
</g>
<g>
</g>
<g>
</g>
<g>
</g>
<g>
</g>
<g>
</g>
<g>
</g>
<g>
</g>
<g>
</g>
<g>
</g>
<g>
</g>
<g>
</g>
<g>
</g>
<g>
</g>
</svg>
